HIERARCHY
ROOT hips
{
  OFFSET 0 10.6860622 2.3727825e-15
  CHANNELS 6 Xposition Yposition Zposition Yrotation Xrotation Zrotation
  JOINT leftUpperLeg
  {
    OFFSET 0.6642549969 -0.9402397400000004 0
    CHANNELS 3 Yrotation Xrotation Zrotation
    JOINT leftLowerLeg
    {
      OFFSET 0 -3.997221335632195 0
      CHANNELS 3 Yrotation Xrotation Zrotation
      JOINT leftFoot
      {
        OFFSET -0.13777839790000004 -4.6145792000000005 -0.22186036399999998
        CHANNELS 3 Yrotation Xrotation Zrotation
        JOINT leftToes
        {
          OFFSET -0.03777410834999995 -0.9130806927000008 0.85230013
          CHANNELS 3 Yrotation Xrotation Zrotation
          End Site
          {
            OFFSET -0.03777410834999995 -0.9130806927000008 0.85230013
          }
        }
      }
    }
  }
  JOINT rightUpperLeg
  {
    OFFSET -0.6642778626 -0.9402397400000004 0
    CHANNELS 3 Yrotation Xrotation Zrotation
    JOINT rightLowerLeg
    {
      OFFSET 0 -3.997221452859387 0
      CHANNELS 3 Yrotation Xrotation Zrotation
      JOINT rightFoot
      {
        OFFSET 0.1377926176 -4.6145792000000005 -0.22185782299999995
        CHANNELS 3 Yrotation Xrotation Zrotation
        JOINT rightToes
        {
          OFFSET 0.037780746850000047 -0.9130806927000008 0.85230167
          CHANNELS 3 Yrotation Xrotation Zrotation
          End Site
          {
            OFFSET 0.037780746850000047 -0.9130806927000008 0.85230167
          }
        }
      }
    }
  }
  JOINT spine
  {
    OFFSET 0 0.13988381660000015 0
    CHANNELS 3 Yrotation Xrotation Zrotation
    JOINT chest
    {
      OFFSET 0 0.6191039003973773 0
      CHANNELS 3 Yrotation Xrotation Zrotation
      JOINT upperChest
      {
        OFFSET 0 0.9855186130586943 0
        CHANNELS 3 Yrotation Xrotation Zrotation
        JOINT leftShoulder
        {
          OFFSET 0.1807663869 1.5087829790000005 0
          CHANNELS 3 Yrotation Xrotation Zrotation
          JOINT leftUpperArm
          {
            OFFSET 0.5985063006419806 0 0
            CHANNELS 3 Yrotation Xrotation Zrotation
            JOINT leftLowerArm
            {
              OFFSET 2.2993332369501065 0 0
              CHANNELS 3 Yrotation Xrotation Zrotation
              JOINT leftHand
              {
                OFFSET 2.395047042602395 0 0
                CHANNELS 3 Yrotation Xrotation Zrotation
                JOINT leftIndexProximal
                {
                  OFFSET 0.5766295810000004 0.04556643899499946 0.17265095988184
                  CHANNELS 3 Yrotation Xrotation Zrotation
                  JOINT leftIndexIntermediate
                  {
                    OFFSET 0.2957229000000008 -0.019352197700001517 -0.007932640616999987
                    CHANNELS 3 Yrotation Xrotation Zrotation
                    JOINT leftIndexDistal
                    {
                      OFFSET 0.19008243099999922 -0.012484908149998475 -0.002786250786000012
                      CHANNELS 3 Yrotation Xrotation Zrotation
                      End Site
                      {
                        OFFSET 0.19008243099999922 -0.012484908149998475 -0.002786250786000012
                      }
                    }
                  }
                }
                JOINT leftMiddleProximal
                {
                  OFFSET 0.5834975091000001 0.0524350405149987 0.02204081888183999
                  CHANNELS 3 Yrotation Xrotation Zrotation
                  JOINT leftMiddleIntermediate
                  {
                    OFFSET 0.33880573540000003 -0.019871473270000717 -0.00000971183179999946
                    CHANNELS 3 Yrotation Xrotation Zrotation
                    JOINT leftMiddleDistal
                    {
                      OFFSET 0.20676022730000088 -0.012221336379999448 0.0001471936708000235
                      CHANNELS 3 Yrotation Xrotation Zrotation
                      End Site
                      {
                        OFFSET 0.20676022730000088 -0.012221336379999448 0.0001471936708000235
                      }
                    }
                  }
                }
                JOINT leftLittleProximal
                {
                  OFFSET 0.5344154683999995 -0.012880921405001189 -0.24414037221816004
                  CHANNELS 3 Yrotation Xrotation Zrotation
                  JOINT leftLittleIntermediate
                  {
                    OFFSET 0.21758961730000093 -0.011650919939999227 0.011893592810000034
                    CHANNELS 3 Yrotation Xrotation Zrotation
                    JOINT leftLittleDistal
                    {
                      OFFSET 0.1475273964999999 -0.008152365682999818 0.006001092492999946
                      CHANNELS 3 Yrotation Xrotation Zrotation
                      End Site
                      {
                        OFFSET 0.1475273964999999 -0.008152365682999818 0.006001092492999946
                      }
                    }
                  }
                }
                JOINT leftRingProximal
                {
                  OFFSET 0.5799399463000003 0.026911854694997794 -0.12150566991816003
                  CHANNELS 3 Yrotation Xrotation Zrotation
                  JOINT leftRingIntermediate
                  {
                    OFFSET 0.26167887460000006 -0.013480186499999602 0.010996293000000053
                    CHANNELS 3 Yrotation Xrotation Zrotation
                    JOINT leftRingDistal
                    {
                      OFFSET 0.17667108799999987 -0.008990287899999228 0.0055541023999999065
                      CHANNELS 3 Yrotation Xrotation Zrotation
                      End Site
                      {
                        OFFSET 0.17667108799999987 -0.008990287899999228 0.0055541023999999065
                      }
                    }
                  }
                }
                JOINT leftThumbProximal
                {
                  OFFSET 0.11018806699999972 -0.09448718900500053 0.17047963138184
                  CHANNELS 3 Yrotation Xrotation Zrotation
                  JOINT leftThumbIntermediate
                  {
                    OFFSET 0.31062601459999983 -0.08126270900000132 0.15443142000000007
                    CHANNELS 3 Yrotation Xrotation Zrotation
                    JOINT leftThumbDistal
                    {
                      OFFSET 0.21627175790000086 -0.08833193599999878 0.018771167799999988
                      CHANNELS 3 Yrotation Xrotation Zrotation
                      End Site
                      {
                        OFFSET 0.21627175790000086 -0.08833193599999878 0.018771167799999988
                      }
                    }
                  }
                }
              }
            }
          }
        }
        JOINT neck
        {
          OFFSET 0 1.5463305265074576 0
          CHANNELS 3 Yrotation Xrotation Zrotation
          JOINT head
          {
            OFFSET 0 0.8456443600000344 0
            CHANNELS 3 Yrotation Xrotation Zrotation
            JOINT leftEye
            {
              OFFSET 0.30408573140000006 0.5104519199999995 0.1276382305
              CHANNELS 3 Yrotation Xrotation Zrotation
              End Site
              {
                OFFSET 0.30408573140000006 0.5104519199999995 0.1276382305
              }
            }
            JOINT rightEye
            {
              OFFSET -0.30409491089999996 0.5104519199999995 0.1276379445
              CHANNELS 3 Yrotation Xrotation Zrotation
              End Site
              {
                OFFSET -0.30409491089999996 0.5104519199999995 0.1276379445
              }
            }
            JOINT jaw
            {
              OFFSET -3.155239131000001e-7 -0.11984121820000082 0.60178107
              CHANNELS 3 Yrotation Xrotation Zrotation
              End Site
              {
                OFFSET -3.155239131000001e-7 -0.11984121820000082 0.60178107
              }
            }
          }
        }
        JOINT rightShoulder
        {
          OFFSET -0.1807303465 1.5087829790000005 0
          CHANNELS 3 Yrotation Xrotation Zrotation
          JOINT rightUpperArm
          {
            OFFSET -0.5985063796536958 0 0
            CHANNELS 3 Yrotation Xrotation Zrotation
            JOINT rightLowerArm
            {
              OFFSET -2.2993322059002854 0 0
              CHANNELS 3 Yrotation Xrotation Zrotation
              JOINT rightHand
              {
                OFFSET -2.395045314457259 0 0
                CHANNELS 3 Yrotation Xrotation Zrotation
                JOINT rightIndexProximal
                {
                  OFFSET -0.5764487688300002 0.0441371204405987 0.17361932004999997
                  CHANNELS 3 Yrotation Xrotation Zrotation
                  JOINT rightIndexIntermediate
                  {
                    OFFSET -0.29573011380000047 -0.01934826376999843 -0.007698921482999974
                    CHANNELS 3 Yrotation Xrotation Zrotation
                    JOINT rightIndexDistal
                    {
                      OFFSET -0.19008373999999884 -0.012503266380000655 -0.0026365778999999897
                      CHANNELS 3 Yrotation Xrotation Zrotation
                      End Site
                      {
                        OFFSET -0.19008373999999884 -0.012503266380000655 -0.0026365778999999897
                      }
                    }
                  }
                }
                JOINT rightMiddleProximal
                {
                  OFFSET -0.5834852037300005 0.05211639405060153 0.02307162440000001
                  CHANNELS 3 Yrotation Xrotation Zrotation
                  JOINT rightMiddleIntermediate
                  {
                    OFFSET -0.33880114510000003 -0.019952774050000954 0.0002455003561999819
                    CHANNELS 3 Yrotation Xrotation Zrotation
                    JOINT rightMiddleDistal
                    {
                      OFFSET -0.20675694929999955 -0.012273788999999091 0.00030209124000002766
                      CHANNELS 3 Yrotation Xrotation Zrotation
                      End Site
                      {
                        OFFSET -0.20675694929999955 -0.012273788999999091 0.00030209124000002766
                      }
                    }
                  }
                }
                JOINT rightLittleProximal
                {
                  OFFSET -0.5346811737299992 -0.011214256288399227 -0.24363941305000003
                  CHANNELS 3 Yrotation Xrotation Zrotation
                  JOINT rightLittleIntermediate
                  {
                    OFFSET -0.21757715980000092 -0.011771559690000988 0.01201554387
                    CHANNELS 3 Yrotation Xrotation Zrotation
                    JOINT rightLittleDistal
                    {
                      OFFSET -0.1475201849000004 -0.00822055339600003 0.006082065407000015
                      CHANNELS 3 Yrotation Xrotation Zrotation
                      End Site
                      {
                        OFFSET -0.1475201849000004 -0.00822055339600003 0.006082065407000015
                      }
                    }
                  }
                }
                JOINT rightRingProximal
                {
                  OFFSET -0.5800810755299999 0.027657985680600072 -0.12066365025000003
                  CHANNELS 3 Yrotation Xrotation Zrotation
                  JOINT rightRingIntermediate
                  {
                    OFFSET -0.26166445029999974 -0.013623118409999302 0.011164098990000045
                    CHANNELS 3 Yrotation Xrotation Zrotation
                    JOINT rightRingDistal
                    {
                      OFFSET -0.17666387530000027 -0.009072900100000503 0.005668185599999959
                      CHANNELS 3 Yrotation Xrotation Zrotation
                      End Site
                      {
                        OFFSET -0.17666387530000027 -0.009072900100000503 0.005668185599999959
                      }
                    }
                  }
                }
                JOINT rightThumbProximal
                {
                  OFFSET -0.10997596379000074 -0.09577489355940072 0.16989765924999997
                  CHANNELS 3 Yrotation Xrotation Zrotation
                  JOINT rightThumbIntermediate
                  {
                    OFFSET -0.31036620999999986 -0.08229339117999834 0.15440884469999996
                    CHANNELS 3 Yrotation Xrotation Zrotation
                    JOINT rightThumbDistal
                    {
                      OFFSET -0.21631306399999906 -0.08825326400000111 0.018656797720000014
                      CHANNELS 3 Yrotation Xrotation Zrotation
                      End Site
                      {
                        OFFSET -0.21631306399999906 -0.08825326400000111 0.018656797720000014
                      }
                    }
                  }
                }
              }
            }
          }
        }
      }
    }
  }
}
MOTION
Frames: 4
Frame Time: 0.03333333333333333
-0.017531761899590492 -6.516173226763916 -0.08480478078126907 -2.9228460105175547 -14.239643880418832 14.838629061035641 94.09820368776958 -74.42823736284586 -75.40860773257211 -175.72119383287145 50.29955344408312 -179.81760287407954 -0.11028295760010669 -25.138484357306442 9.317975662594753 -0.025273503706115617 0.18174861038676116 0.058075406187415225 18.745656848340225 -40.42625911119345 -27.978320499548474 177.4045626014402 29.79965371347987 -178.29514182629558 -3.550693538538667 -55.39759650587006 9.388298054810882 0.8487963384319994 -43.2555046205598 -2.21597304660326 -2.263664454810125 9.005672135693706 -3.30231931087331 -16.182051294225463 35.14101603701643 -12.85403287621615 0 0 0 -14.0333437069754 -3.3363927479158058 -4.806942787361858 -17.85052954489965 -15.138331388063062 -52.695719118639474 -92.63517378395657 0.3674107198255498 0.7477855528502079 -19.03365036321608 63.60521046334569 -53.294457487060754 7.301196675575373 1.0194183231473526 -14.511699302701228 0.4434435273961789 0.3067889908043997 -30.965897237420872 -1.281281483810888e-10 1.793762613445802e-24 1.6042536111691759e-12 7.149019667625859 1.0406984416949419 -27.85365011830116 -2.874783729061245 -0.7782371674122174 -27.158538388773536 1.139979627027678e-10 6.3611093629270335e-15 -1.43444452663829e-12 6.721446697115735 -2.2489318433337337 -30.648138042434844 -8.6311924506261 -2.5403779091360468 -42.76271259948009 4.171116073730225e-11 5.950788745874541e-26 -1.634838641478621e-13 7.390509344389673 0.02043386203184843 -34.00501110627715 -4.399012402269519 -1.2255717604145828 -30.970546161688965 7.902567988186446e-7 -1.8819428561306963e-7 -0.00000291960996562177 10.786345018779507 -3.4598584823615735 18.63364647802163 6.47150359518435 1.8917477241683858 2.316787080731423 -0.000011179391800526109 0.00000217150869655112 -0.000005998239523096715 5.453400207808357 -9.38595252754593 -4.760083840504314 0.4582941597745436 -21.192520274884682 -0.993071145605821 0 0 0 0 0 0 0 0 0 14.00349446995584 -3.3224287624859055 4.659700659480548 35.4271298867382 -2.355875862864247 56.13638397064101 53.31296592306264 0.44176108211699805 -0.2083713698713897 16.106966386228056 34.43517410134498 -17.270435891472367 -6.672241450560707 1.5614985496235727 37.88643929177144 -0.9197854605226456 0.09286510688390578 17.498250985496174 3.933694872703174e-10 3.1805546814635168e-15 -4.874754472204794e-12 -7.346942297711795 0.0385169437398176 29.12106553135848 1.0024402801942291 -0.22200739680349127 7.925438880386022 -6.394805431444331e-7 -0.0000015819178252513744 8.264346128066769e-9 -8.896667478180273 2.294220424592052 11.44688038570747 7.756467881117947 -1.1234245508242444 21.79847241081514 1.6628260911929426e-9 -3.1805543023118527e-15 -2.179830267765673e-11 -7.807770803581883 1.5010498493722166 22.8954018590858 3.612511095976345 -0.5774740966409039 18.651343518776002 -4.3803240153668535e-10 2.0219334966109398e-23 5.2894833502657416e-12 -7.6970499782003925 3.813600168698188 6.651102148617318 -6.237887683095226 2.142058458599196 -2.8814017519388644 0.0000037103823705209336 -0.000003934571476908445 0.000005358235384318407
-0.017573252320289612 -6.516778809954834 -0.08490247279405594 -2.8978882689775682 -14.25192308254444 14.84739719389299 94.08723772135949 -74.41744023806027 -75.43143937378673 -175.7198379456815 50.29853765253234 -179.81662515182776 -0.09852931515620889 -25.128999019031713 9.309914911334007 -0.025270214252686107 0.19869891218960334 0.05727769243710972 18.721838395119704 -40.40185850585812 -28.007523774958045 177.4100403660074 29.792627141789342 -178.29243919468317 -3.5142161273845076 -55.41968527539482 9.363367070238032 0.8487963384319994 -43.2555046205598 -2.21597304660326 -2.2853725112000935 9.0039043814827 -3.304427494576784 -16.2829729150153 35.126133169387046 -12.886164024934606 0 0 0 -14.0333437069754 -3.3363927479158058 -4.806942787361858 -17.764935607755778 -15.07401037194129 -52.738552978423556 -92.66456753644363 0.36786090792825643 0.7474117929977538 -18.943447285104217 63.54382779422895 -53.09163443013634 7.287125656486254 0.9932868976868755 -14.3522515293575 0.45107098726517797 0.29472108088022814 -30.727251822878298 -1.281281483810888e-10 1.793762613445802e-24 1.6042536111691759e-12 7.149005553536288 1.0229519064434782 -27.720389911386516 -2.858900320444676 -0.7703134778330674 -26.968293537856862 1.139979627027678e-10 6.3611093629270335e-15 -1.43444452663829e-12 6.755929993001334 -2.2209202067965053 -30.543838755770892 -8.623922093647097 -2.5150952690834645 -42.586019728061366 4.171116073730225e-11 5.950788745874541e-26 -1.634838641478621e-13 7.410626752581355 0.028344422432875802 -33.89570481759169 -4.382423320748423 -1.2062002904994185 -30.798151449330962 7.902567988186446e-7 -1.8819428561306963e-7 -0.00000291960996562177 10.752865951802342 -3.505730231635398 18.647237167649394 6.466155625162577 1.9056906729374075 2.324959199256609 -0.000011179391800526109 0.00000217150869655112 -0.000005998239523096715 5.501962034710964 -9.331886514727687 -4.806944749332986 0.4846688768963192 -21.282808604422886 -0.9889683518424425 0 0 0 0 0 0 0 0 0 14.00349446995584 -3.3224287624859055 4.659700659480548 35.50210449165198 -2.3449565163669197 56.08457555638997 53.31079041090165 0.44061621775758353 -0.20819555792449548 16.1165224349528 34.457329679450396 -17.18666426455518 -6.668963209404762 1.5597100842257052 37.92043882872815 -0.9195904500110142 0.09274477800279003 17.490168669835224 3.933694872703174e-10 3.1805546814635168e-15 -4.874754472204794e-12 -7.35402484924113 0.058530489179254755 29.131049334747296 1.0033486485022305 -0.2222121706150888 7.931421474053035 -6.394805431444331e-7 -0.0000015819178252513744 8.264346128066769e-9 -8.904002252238435 2.301881520472115 11.504234072949028 7.755473707735758 -1.1225867312299258 21.79203881955494 1.6628260911929426e-9 -3.1805543023118527e-15 -2.179830267765673e-11 -7.793441224934749 1.4913609108496417 22.931665165163196 3.61270113183522 -0.578256299805232 18.661635508951726 -4.3803240153668535e-10 2.0219334966109398e-23 5.2894833502657416e-12 -7.670060906654638 3.810991667705462 6.634710254893011 -6.2256217047879865 2.1358350217611197 -2.8822569379919485 0.0000037103823705209336 -0.000003934571476908445 0.000005358235384318407
-0.01753481663763523 -6.5169342588684085 -0.08491223305463791 -2.8806825267235925 -14.259125312920357 14.852976084010285 94.06759807870579 -74.40953460537415 -75.43733422186573 -175.7189115125773 50.30015223663299 -179.81585118241287 -0.08894923818970452 -25.124861084723847 9.302942563151364 -0.025270849100315136 0.20253115205350167 0.05710698373477645 18.708757621296837 -40.385832480213786 -28.024782749979146 177.4139558203711 29.791135706713064 -178.2906170121437 -3.496858450638625 -55.430746331385336 9.355198060506298 0.8487963384319994 -43.2555046205598 -2.21597304660326 -2.297084590828784 9.002550693880947 -3.3051961410278814 -16.336516447576958 35.11666366952998 -12.901172542140147 0 0 0 -14.0333437069754 -3.3363927479158058 -4.806942787361858 -17.7202214284544 -15.041829754830552 -52.76919434365174 -92.67933567700089 0.3683402050003953 0.7472393951930599 -18.881385055025994 63.53565750875007 -52.97858660071486 7.280189024563941 0.9724885793903101 -14.272868718611731 0.45486492793247657 0.2886701485476535 -30.61097309690478 -1.281281483810888e-10 1.793762613445802e-24 1.6042536111691759e-12 7.149071529412114 1.0076351503477834 -27.653578070823244 -2.8510016181821647 -0.7664607446025137 -26.87014427965942 1.139979627027678e-10 6.3611093629270335e-15 -1.43444452663829e-12 6.770964421548485 -2.205819558654007 -30.509182516094157 -8.619805489725433 -2.5014640925831158 -42.490523235497605 4.171116073730225e-11 5.950788745874541e-26 -1.634838641478621e-13 7.42081336829953 0.022854862443220363 -33.825376604763534 -4.373817891650042 -1.1967705284961687 -30.71648289361059 7.902567988186446e-7 -1.8819428561306963e-7 -0.00000291960996562177 10.73782800737822 -3.528197763934181 18.654551775989532 6.459903638162829 1.9115681098065649 2.329995333824235 -0.000011179391800526109 0.00000217150869655112 -0.000005998239523096715 5.524880428655801 -9.304637337655072 -4.829269100352485 0.49852452307734485 -21.32569595026273 -0.9904243764900211 0 0 0 0 0 0 0 0 0 14.00349446995584 -3.3224287624859055 4.659700659480548 35.53860436009265 -2.3388012169658143 56.06130473302481 53.31563932010795 0.4400044175136891 -0.2083278034184708 16.114535757678894 34.472489966541815 -17.144426808175194 -6.66839014719257 1.5622244201770352 37.93586619412236 -0.9197364815059083 0.0928447030009871 17.497194653876495 3.933694872703174e-10 3.1805546814635168e-15 -4.874754472204794e-12 -7.357026894226462 0.06629020900569009 29.1378774721071 1.003849646746639 -0.2223835269436525 7.936153050180884 -6.394805431444331e-7 -0.0000015819178252513744 8.264346128066769e-9 -8.906806072168143 2.3051714209463956 11.532102997165342 7.755314793864573 -1.1224413483664313 21.791002708918413 1.6628260911929426e-9 -3.1805543023118527e-15 -2.179830267765673e-11 -7.787036903405435 1.4871360789980965 22.94977461779822 3.6127906088259287 -0.5785651147968286 18.665690426815722 -4.3803240153668535e-10 2.0219334966109398e-23 5.2894833502657416e-12 -7.658446793029264 3.8113399237358943 6.623240965367664 -6.221833628220438 2.1339571238198336 -2.8829436075285373 0.0000037103823705209336 -0.000003934571476908445 0.000005358235384318407
-0.016931097954511642 -6.517249448229981 -0.08465159684419632 -2.861913137533895 -14.263060386023552 14.874218065179305 94.04332557772568 -74.38109649124773 -75.45712115970768 -175.7169161730225 50.3012749929811 -179.81429607370313 -0.05990007194692056 -25.126850821420433 9.287045605592581 -0.025268669629633724 0.2022504588758751 0.0571586173264839 18.721344156543378 -40.35107619130927 -28.109696960544106 177.4274045124051 29.786090964404224 -178.28432979636776 -3.4021622118702157 -55.4544013928404 9.3040699566238 0.8487963384319994 -43.2555046205598 -2.21597304660326 -2.3169018123178384 8.999458669109945 -3.3063277942487734 -16.425741540743886 35.09824555474495 -12.921964798678745 0 0 0 -14.0333437069754 -3.3363927479158058 -4.806942787361858 -17.6441608474062 -14.994818603711588 -52.830399727380396 -92.7089771831841 0.36951214034598207 0.7470275485779794 -18.789405724307205 63.56213896261483 -52.817400045849645 7.265943954255884 0.9267701906001616 -14.106217628523327 0.4624197142301427 0.2765603426141666 -30.385545235834055 -1.281281483810888e-10 1.793762613445802e-24 1.6042536111691759e-12 7.149051802562627 0.97472835102488 -27.522014950685307 -2.8352497927555573 -0.7588711450934653 -26.671542312838397 1.139979627027678e-10 6.3611093629270335e-15 -1.43444452663829e-12 6.79612325668534 -2.1784926766971253 -30.45045020487231 -8.610973309193303 -2.4732580776110096 -42.29249681023636 4.171116073730225e-11 5.950788745874541e-26 -1.634838641478621e-13 7.440056492487159 -0.006553121710179826 -33.66982730387168 -4.356210233241274 -1.178328364851431 -30.56112283911653 7.902567988186446e-7 -1.8819428561306963e-7 -0.00000291960996562177 10.712195946162078 -3.571766191933741 18.670195179387797 6.440667133240372 1.9206782728469696 2.3423814344030123 -0.000011179391800526109 0.00000217150869655112 -0.000005998239523096715 5.562733721435984 -9.263553449478614 -4.869446143727299 0.515297494335218 -21.409061571074286 -0.9650765401140328 0 0 0 0 0 0 0 0 0 14.00349446995584 -3.3224287624859055 4.659700659480548 35.59392714661779 -2.3305289677574508 56.027754652067586 53.32846819949654 0.43895888756622653 -0.2086369584021998 16.105418813386706 34.50938322143393 -17.06909544982256 -6.668570067873658 1.56894698204486 37.95606876069424 -0.9202024786971198 0.09319739869309816 17.51746583325359 3.933694872703174e-10 3.1805546814635168e-15 -4.874754472204794e-12 -7.360179744498432 0.07341475527980283 29.151258089732867 1.0049401155645707 -0.22276433954362856 7.94860590637224 -6.394805431444331e-7 -0.0000015819178252513744 8.264346128066769e-9 -8.912940831153918 2.3101873535798965 11.562089233914799 7.757547665485729 -1.1243964389334071 21.805552663926697 1.6628260911929426e-9 -3.1805543023118527e-15 -2.179830267765673e-11 -7.7787872850730855 1.482035523961825 22.98043278149936 3.612958700472842 -0.5791448033256722 18.672941646695623 -4.3803240153668535e-10 2.0219334966109398e-23 5.2894833502657416e-12 -7.641920588730029 3.8129922165540164 6.6031062662226905 -6.215795887176577 2.131117640546127 -2.884432106486751 0.0000037103823705209336 -0.000003934571476908445 0.000005358235384318407
